# Blender v2.76 (sub 0) OBJ File: ''
# www.blender.org
mtllib door.mtl
o Cube_Cube.001
v -0.500000 0.500000 -0.500000
v -0.500000 0.500000 0.500000
v 0.500000 0.500000 -0.500000
v 0.500000 0.500000 0.500000
v -0.500000 -0.500000 -0.500000
v -0.500000 -0.500000 0.500000
v 0.500000 -0.500000 -0.500000
v 0.500000 -0.500000 0.500000
v -0.213069 0.213069 -0.321924
v 0.213069 0.213069 -0.321924
v 0.213069 -0.213069 -0.321924
v -0.213069 -0.213069 -0.321924
v -0.213069 0.213069 0.322406
v 0.213069 0.213069 0.322406
v 0.213069 -0.213069 0.322406
v -0.213069 -0.213069 0.322406
vt 0.532615 0.308539
vt 0.540329 0.223099
vt 0.577131 0.218194
vt 0.359125 0.352311
vt 0.313641 0.133155
vt 0.215780 0.504509
vt 0.000091 0.505445
vt 0.597379 0.252592
vt 0.680454 0.000091
vt 0.615818 0.820253
vt 0.672560 0.505484
vt 0.716049 0.489734
vt 0.701815 0.400417
vt 0.696148 0.143824
vt 0.344060 0.699961
vt 0.534968 0.656581
vt 0.640752 0.470303
vt 0.257927 0.820253
vt 0.845173 0.332425
vt 0.999909 0.513801
vn -0.000000 0.527300 0.849700
vn 0.527300 0.000000 0.849700
vn 0.000000 -0.527300 0.849700
vn -0.527300 -0.000000 0.849700
vn -0.000000 -0.000000 -1.000000
vn 0.000000 0.000000 1.000000
vn -1.000000 -0.000000 0.000000
vn 0.000000 -1.000000 0.000000
vn 1.000000 0.000000 -0.000000
vn -0.000000 1.000000 0.000000
vn -0.000000 0.526300 -0.850300
vn 0.526300 0.000000 -0.850300
vn 0.000000 -0.526300 -0.850300
vn -0.526300 -0.000000 -0.850300
usemtl Material.001
s off
f 10/1/1 3/2/1 1/3/1
f 11/4/2 7/5/2 3/2/2
f 12/6/3 5/7/3 7/5/3
f 9/8/4 1/3/4 5/9/4
f 3/2/5 7/5/5 5/9/5
f 8/10/6 4/11/6 2/12/6
f 13/13/7 9/8/7 12/14/7
f 16/15/8 12/6/8 11/4/8
f 15/16/9 11/4/9 10/1/9
f 14/17/10 10/1/10 9/8/10
f 4/11/11 14/17/11 13/13/11
f 8/10/12 15/16/12 14/17/12
f 6/18/13 16/15/13 15/16/13
f 2/12/14 13/13/14 16/19/14
f 9/8/1 10/1/1 1/3/1
f 10/1/2 11/4/2 3/2/2
f 11/4/3 12/6/3 7/5/3
f 12/14/4 9/8/4 5/9/4
f 1/3/5 3/2/5 5/9/5
f 6/20/6 8/10/6 2/12/6
f 16/19/7 13/13/7 12/14/7
f 15/16/8 16/15/8 11/4/8
f 14/17/9 15/16/9 10/1/9
f 13/13/10 14/17/10 9/8/10
f 2/12/11 4/11/11 13/13/11
f 4/11/12 8/10/12 14/17/12
f 8/10/13 6/18/13 15/16/13
f 6/20/14 2/12/14 16/19/14
