# Blender v2.76 (sub 0) OBJ File: ''
# www.blender.org
mtllib key.mtl
o Sphere
v 0.000000 0.060000 0.000000
v -0.051962 0.016382 0.000000
v -0.051962 -0.020431 0.000000
v 0.000000 -0.060000 0.000000
v -0.025981 0.016382 -0.045000
v -0.025981 -0.020431 -0.045000
v 0.025981 0.016382 -0.045000
v 0.025981 -0.020431 -0.045000
v 0.051962 0.016382 0.000000
v 0.051962 -0.020431 0.000000
v 0.025981 0.016382 0.045000
v 0.025981 -0.020431 0.045000
v -0.025981 0.016382 0.045000
v -0.025981 -0.020431 0.045000
vt 0.583396 0.429626
vt 0.494805 0.433211
vt 0.511647 0.343914
vt 0.414338 0.431272
vt 0.427280 0.330807
vt 0.289041 0.410124
vt 0.000089 0.466839
vt 0.016466 0.173362
vt 0.999911 0.578113
vt 0.699800 0.458661
vt 0.716578 0.355857
vt 0.551545 0.000089
vt 0.595545 0.361880
vt 0.458636 0.790905
vt 0.311073 0.308505
vt 0.999911 0.285217
vn -0.866000 -0.000000 -0.500000
vn 0.000000 -0.000000 -1.000000
vn 0.866000 0.000000 -0.500000
vn 0.866000 -0.000000 0.500000
vn -0.000000 -0.000000 1.000000
vn -0.571900 -0.751000 -0.330200
vn -0.602700 0.718000 -0.348000
vn 0.000000 -0.751000 -0.660300
vn 0.000000 0.718000 -0.696000
vn 0.571900 -0.751000 -0.330200
vn 0.602700 0.718000 -0.348000
vn 0.571900 -0.751000 0.330200
vn 0.602700 0.718000 0.348000
vn -0.000000 -0.751000 0.660300
vn -0.000000 0.718000 0.696000
vn -0.571900 -0.751000 0.330200
vn -0.866000 -0.000000 0.500000
vn -0.602700 0.718000 0.348000
usemtl Material.001
s off
f 2/1/1 5/2/1 6/3/1
f 5/2/2 7/4/2 8/5/2
f 8/5/3 7/4/3 9/6/3
f 9/6/4 11/7/4 12/8/4
f 11/9/5 13/10/5 14/11/5
f 4/12/6 3/13/6 6/3/6
f 2/1/7 1/14/7 5/2/7
f 4/12/8 6/3/8 8/5/8
f 5/2/9 1/14/9 7/4/9
f 4/12/10 8/5/10 10/15/10
f 7/4/11 1/14/11 9/6/11
f 4/12/12 10/15/12 12/8/12
f 9/6/13 1/14/13 11/7/13
f 4/12/14 12/16/14 14/11/14
f 11/9/15 1/14/15 13/10/15
f 4/12/16 14/11/16 3/13/16
f 14/11/17 13/10/17 2/1/17
f 13/10/18 1/14/18 2/1/18
f 3/13/1 2/1/1 6/3/1
f 6/3/2 5/2/2 8/5/2
f 10/15/3 8/5/3 9/6/3
f 10/15/4 9/6/4 12/8/4
f 12/16/5 11/9/5 14/11/5
f 3/13/17 14/11/17 2/1/17
